# xmcd
#
# Track frame offsets:
#	150
#	10502
#	22587
#	34156
#	47084
#	58328
#	73009
#	85810
#	98819
#	110476
#	123646
#	135525
#
# Disc length: 1940 seconds
#
# Revision: 1
# Processed by: cddbd v1.5PL3 Copyright (c) Steve Scherf et al.
# Submitted via: audiograbber 1.83.01
#
DISCID=9807920c
DTITLE=Groupo Callejrero - Suenale Bonito
DYEAR=2001
DGENRE=Latin
TTITLE0=Suenale Bonito
TTITLE1=Rosa Rosita
TTITLE2=Tu Recuerdo
TTITLE3=La Carcel De Sacramento
TTITLE4=Volveras
TTITLE5=Directo Al Corazon
TTITLE6=El Callejero
TTITLE7=Necesito De Ti
TTITLE8=Quieres Olvidarme
TTITLE9=Penas Sagradas
TTITLE10=Te Seguire Sonando
TTITLE11=Regresan Los Mafiosos
EXTD=
EXTT0=
EXTT1=
EXTT2=
EXTT3=
EXTT4=
EXTT5=
EXTT6=
EXTT7=
EXTT8=
EXTT9=
EXTT10=
EXTT11=
PLAYORDER=
